<svg width="75" height="20" viewBox="0 0 75 20" fill="none" xmlns="http://www.w3.org/2000/svg">
    <g clip-path="url(#clip0)">
        <path fill-rule="evenodd" clip-rule="evenodd" d="M46.8852 5.37169V5.45657C46.8852 5.96128 45.524 16.1433 45.524 16.2491C45.524 16.354 45.4349 16.354 45.4349 16.354H40.9709L40.8818 16.2491C40.8818 16.2491 41.5851 10.6155 41.9978 7.37275H40.1114C40.039 9.29665 39.759 11.2082 39.2754 13.0796C38.5834 15.712 37.2886 16.8495 35.4029 16.8495C34.0145 16.8171 32.8894 15.7783 32.8253 14.4695C32.8698 14.0481 34.3095 13.9007 35.6376 10.7421C36.1771 9.02269 36.5506 7.26008 36.7528 5.47664C36.7498 5.45194 36.7574 5.42648 36.7747 5.40718C36.7913 5.38712 36.8155 5.374 36.8426 5.37169C40.1522 4.70029 43.5757 4.70029 46.8859 5.37169H46.8852ZM14.0222 0.159491C15.0031 0.0151797 15.9999 0.301488 16.7288 0.938156C17.457 1.57405 17.838 2.48931 17.7603 3.42309C17.7158 5.71896 15.3502 8.04569 12.0029 8.98333L16.0421 16.2282C16.0421 16.2282 16.1093 16.3332 15.975 16.3332H9.70451C9.63962 16.3301 9.58453 16.2869 9.5702 16.2282L7.05899 10.4473C6.35875 10.9312 5.90148 11.6674 5.79508 12.4815C5.68944 13.2949 5.94524 14.1137 6.50136 14.7427C6.71264 15.0483 5.49703 16.8495 3.36537 16.8495C2.41461 16.8541 1.50611 16.4767 0.867739 15.8115C0.228619 15.1463 -0.0807552 14.2565 0.0180935 13.3636C0.162971 11.0685 2.68474 8.80429 6.03202 7.9091L2.25011 0.833202C2.25011 0.833202 2.25011 0.686576 2.41763 0.686576H8.28743C8.45494 0.686576 8.45494 0.812366 8.45494 0.812366L10.865 6.62496C13.2533 5.3084 11.8913 2.28635 11.4008 1.84416C11.2333 1.69753 11.8913 0.33853 14.0229 0.159491H14.0222ZM73.5442 11.7847C73.1088 15.2698 74.7832 14.522 74.4255 15.1116C73.7637 16.0669 72.6447 16.6504 71.4351 16.6704C70.71 16.7044 70.0014 16.4574 69.474 15.9859C68.9473 15.5152 68.6477 14.8592 68.6455 14.1747C67.8449 15.5854 66.341 16.5169 64.6508 16.6488C61.7268 16.6488 60.4886 13.4377 60.89 10.4056C61.2914 7.37275 63.2895 4.73965 66.3244 4.70801C67.7521 4.69875 69.0288 5.54455 69.5049 6.8148C69.6272 5.88797 69.7162 5.42416 69.7162 5.29837C69.7162 5.17181 69.8505 5.17181 69.8505 5.17181H74.504C74.5477 5.18956 74.5749 5.232 74.5711 5.27676C74.5711 5.27676 73.7562 10.2682 73.5442 11.7847V11.7847ZM69.2031 10.668C69.3706 9.02578 68.9692 7.68839 67.8305 7.68839C66.6927 7.68839 65.923 9.02578 65.7215 10.668C65.5208 12.311 65.9336 13.6268 67.0722 13.6268C68.2101 13.6268 68.9911 12.311 69.2031 10.668ZM32.0104 5.26596C32.0104 5.26596 31.2075 10.2783 30.9955 11.753C30.5488 15.2381 32.2224 14.4903 31.9213 15.0799C31.2596 16.0353 30.1398 16.6187 28.931 16.6388C28.1983 16.6851 27.4777 16.4435 26.9404 15.9705C26.4031 15.4974 26.0975 14.8361 26.096 14.1431C25.2962 15.5538 23.7916 16.4852 22.1013 16.6172C19.1781 16.6172 17.9391 13.3744 18.3406 10.374C18.7427 7.37198 20.7288 4.69797 23.775 4.69797C25.2026 4.68794 26.4801 5.53375 26.9555 6.804C27.0785 5.87716 27.1675 5.41413 27.1675 5.28757C27.1675 5.16101 27.3018 5.16101 27.3018 5.16101H31.944C31.9877 5.17876 32.0149 5.2212 32.0104 5.26673V5.26596ZM26.5986 10.658L26.6099 10.668C26.7993 9.02578 26.376 7.68839 25.2366 7.68839C24.0987 7.68839 23.3177 9.01574 23.1162 10.658C22.9163 12.3002 23.329 13.6167 24.4669 13.6167C25.6056 13.6167 26.3865 12.3002 26.5986 10.658V10.658ZM56.3928 0.00128874C61.0794 -0.124502 62.6082 6.46676 53.1791 7.43526L53.0674 7.87746C55.7122 7.02471 59.451 7.63591 59.7076 10.7946C59.986 14.3429 56.9172 16.7545 53.4137 16.7545C49.9095 16.7545 48.0012 14.2588 48.0012 11.2368C48.0012 6.46753 50.9591 0.138655 56.3928 0.00128874V0.00128874ZM55.556 2.87594C54.5524 2.87594 53.8823 5.02441 53.6477 5.79304C53.6477 5.79304 55.9468 4.80293 56.1362 3.46554C56.1589 3.18155 56.1362 2.87594 55.556 2.87594V2.87594ZM55.4556 11.8163C55.5228 10.6788 55.1093 9.91017 53.994 9.70952C53.545 9.66167 53.0908 9.69409 52.6546 9.80444C52.4652 10.7629 51.9514 14.248 53.6477 14.248C54.8527 14.248 55.4556 12.4476 55.4556 11.8163Z" fill="white"/>
    </g>
    <defs>
        <clipPath id="clip0">
            <rect width="75" height="20" fill="white"/>
        </clipPath>
    </defs>
</svg>
