<svg width="108" height="20" viewBox="0 0 108 20" fill="none" xmlns="http://www.w3.org/2000/svg">
    <path d="M29.7784 13.3485C30.1798 13.3731 30.5822 13.3183 30.962 13.1872C31.2003 13.0635 31.3373 12.8071 31.3067 12.542C31.2874 12.2617 31.1153 12.0142 30.8579 11.8968C30.4228 11.6422 29.9658 11.4263 29.4923 11.2517C29.0497 11.0908 28.6155 10.9078 28.1916 10.7033C27.828 10.5309 27.4944 10.3022 27.2031 10.0259C26.922 9.76077 26.7004 9.43981 26.5528 9.08394C26.3952 8.67203 26.318 8.23415 26.3252 7.79362C26.2903 6.86993 26.7098 5.98696 27.4503 5.42588C28.362 4.80188 29.4604 4.50386 30.5653 4.58072C31.1959 4.57929 31.8253 4.63762 32.4447 4.75491C32.9314 4.83942 33.41 4.9646 33.8754 5.12911L33.3422 7.47749C32.9646 7.3497 32.5803 7.24202 32.1911 7.15491C31.7319 7.05576 31.2629 7.00815 30.7929 7.01298C29.8391 7.01298 29.3622 7.27534 29.3622 7.80007C29.3594 7.91043 29.3794 8.02018 29.4207 8.12265C29.4771 8.23336 29.5624 8.32696 29.6679 8.39362C29.8265 8.50201 29.994 8.59697 30.1686 8.67749C30.381 8.78072 30.6498 8.89255 30.975 9.01298C31.5425 9.21396 32.0945 9.45545 32.6268 9.73556C33.0121 9.93547 33.3614 10.197 33.6608 10.5098C33.9063 10.7736 34.0885 11.0889 34.1941 11.4323C34.3034 11.8141 34.3559 12.2097 34.3502 12.6065C34.4049 13.5531 33.9558 14.4589 33.1666 14.9936C32.1472 15.5889 30.9722 15.8697 29.7914 15.8001C28.9909 15.816 28.1914 15.7337 27.4112 15.5549C26.9685 15.4503 26.5338 15.3145 26.1106 15.1485L26.6178 12.6968C27.1345 12.9 27.6675 13.0597 28.2111 13.1743C28.7262 13.2852 29.2514 13.3436 29.7784 13.3485Z" fill="white"/>
    <path d="M43.0435 7.53527C42.7703 7.46645 42.4517 7.39548 42.0875 7.32236C41.6976 7.2467 41.3011 7.20996 40.9039 7.21268C40.6754 7.21589 40.4474 7.23313 40.2211 7.2643C40.017 7.28558 39.8148 7.32225 39.6163 7.37398V15.4837H36.5728V5.42559C37.2126 5.21151 37.8639 5.03274 38.5237 4.8901C39.3269 4.71679 40.147 4.6324 40.9689 4.63849C41.1337 4.63849 41.331 4.63849 41.5607 4.63849C41.7905 4.63849 42.0268 4.67505 42.2696 4.74817C42.4994 4.78258 42.7313 4.82344 42.9654 4.87075C43.1678 4.91033 43.3659 4.96865 43.5572 5.04494L43.0435 7.53527Z" fill="white"/>
    <path fill-rule="evenodd" clip-rule="evenodd" d="M51.0827 4.8837C50.3562 4.66335 49.5985 4.56095 48.8391 4.58047C48.5009 4.57617 48.1584 4.59122 47.8116 4.62563C47.4647 4.66004 47.1352 4.7009 46.8231 4.74821C46.4806 4.79983 46.1814 4.85574 45.9256 4.91596C45.6698 4.97617 45.4531 5.03423 45.2753 5.09015L45.6655 7.52241C46.0871 7.37352 46.5229 7.2676 46.9662 7.20628C47.4722 7.13251 47.983 7.09585 48.4944 7.0966C49.0703 7.03818 49.6471 7.19967 50.1072 7.54821C50.4284 7.87963 50.5978 8.3277 50.5754 8.78692V9.07079C50.3301 9.00791 50.08 8.96476 49.8276 8.94176C49.4776 8.90557 49.1259 8.88834 48.774 8.89015C48.2135 8.88025 47.6534 8.92781 47.1027 9.03208C46.5861 9.14448 46.0931 9.34533 45.646 9.62563C45.2276 9.87981 44.8808 10.2349 44.638 10.6579C44.3733 11.1423 44.2432 11.6878 44.2608 12.2385C44.2434 12.8021 44.3545 13.3623 44.586 13.8772C44.7957 14.3146 45.1189 14.6887 45.5224 14.9611C45.9701 15.2551 46.4717 15.459 46.9987 15.5611C47.6191 15.6875 48.2513 15.7481 48.8846 15.7418C49.827 15.7526 50.7687 15.6879 51.7005 15.5482C52.4766 15.4192 53.0814 15.3074 53.5149 15.2127V8.93531C53.5204 8.32792 53.4439 7.72253 53.2873 7.13531C53.1505 6.61921 52.8869 6.14483 52.5199 5.75466C52.1196 5.35237 51.6262 5.05336 51.0827 4.8837ZM49.9445 13.4127H49.0861V13.4063C48.6549 13.4225 48.2262 13.3339 47.8375 13.1482C47.5019 12.939 47.3153 12.5587 47.3562 12.1676C47.3482 11.9539 47.4048 11.7426 47.5188 11.5611C47.6311 11.3949 47.786 11.2613 47.9675 11.174C48.1724 11.0752 48.392 11.0098 48.6178 10.9805C48.8852 10.9455 49.1546 10.9283 49.4242 10.9289C49.6416 10.9304 49.8586 10.9434 50.0746 10.9676C50.3 10.9676 50.4734 10.9912 50.5948 11.0385V13.3547C50.3793 13.386 50.1622 13.4054 49.9445 13.4127Z" fill="white"/>
    <path d="M58.9388 15.4837C58.2321 14.1547 57.5254 12.5848 56.8187 10.774C56.112 8.96329 55.4335 6.99124 54.7832 4.85791H58.0348C58.1692 5.38264 58.3296 5.95253 58.5161 6.56759C58.7025 7.18264 58.8932 7.80415 59.0883 8.4321C59.2878 9.06006 59.485 9.67081 59.6801 10.2644C59.8752 10.8579 60.0703 11.3977 60.2654 11.8837C60.4432 11.3977 60.6339 10.8579 60.8377 10.2644C61.0415 9.67081 61.2431 9.06006 61.4425 8.4321C61.6419 7.80415 61.8327 7.18264 62.0148 6.56759C62.1969 5.95253 62.3573 5.38264 62.496 4.85791H65.6176C64.9759 7.00845 64.2974 8.98049 63.5821 10.774C62.8667 12.5676 62.16 14.1375 61.462 15.4837H58.9388Z" fill="white"/>
    <path d="M67.2314 5.22576C67.8902 5.0484 68.559 4.91052 69.2344 4.81285C70.095 4.68019 70.9648 4.61547 71.8357 4.6193C72.61 4.59706 73.3818 4.71738 74.1119 4.97414C74.6703 5.17804 75.1656 5.52268 75.5491 5.97414C75.9122 6.42656 76.1698 6.95315 76.3034 7.51608C76.4608 8.16675 76.5372 8.83408 76.5311 9.50318V15.4838H73.4875V9.86447C73.5418 9.15428 73.4072 8.44241 73.0974 7.79995C72.757 7.35639 72.2048 7.12549 71.6471 7.1935C71.4304 7.1935 71.1984 7.1935 70.9513 7.1935L70.301 7.26447V15.4838H67.2575L67.2314 5.22576Z" fill="white"/>
    <path fill-rule="evenodd" clip-rule="evenodd" d="M82.0502 3.07085C82.4129 2.7406 82.6104 2.26851 82.59 1.78053C82.6104 1.29255 82.4129 0.820455 82.0502 0.490206C81.3179 -0.136709 80.2332 -0.136709 79.5009 0.490206C79.1382 0.820455 78.9407 1.29255 78.9612 1.78053C78.9407 2.26851 79.1382 2.7406 79.5009 3.07085C80.2332 3.69777 81.3179 3.69777 82.0502 3.07085ZM79.255 15.4838H82.2985V4.85796H79.255V15.4838Z" fill="white"/>
    <path d="M88.13 13.9162C88.165 14.4427 87.951 14.9553 87.5512 15.3033C86.7954 15.9195 85.7058 15.9195 84.9499 15.3033C84.5501 14.9553 84.3362 14.4427 84.3711 13.9162C84.3362 13.3897 84.5501 12.877 84.9499 12.5291C85.7058 11.9128 86.7954 11.9128 87.5512 12.5291C87.951 12.877 88.165 13.3897 88.13 13.9162Z" fill="white"/>
    <path d="M96.6443 7.53554C96.3712 7.46672 96.0525 7.39576 95.6883 7.32264C95.2985 7.24698 94.902 7.21023 94.5047 7.21296C94.2763 7.21616 94.0482 7.2334 93.8219 7.26457C93.6178 7.28586 93.4156 7.32252 93.2171 7.37425V15.4839H90.1736V5.42586C90.8134 5.21178 91.4648 5.03301 92.1246 4.89038C92.9383 4.71467 93.7695 4.63027 94.6023 4.63877C94.767 4.63877 94.9643 4.63877 95.1941 4.63877C95.4239 4.63877 95.6558 4.66672 95.8899 4.72264C96.1197 4.75705 96.3516 4.79791 96.5858 4.84522C96.7881 4.88479 96.9862 4.94311 97.1776 5.01941L96.6443 7.53554Z" fill="white"/>
    <path d="M107.954 15.1482C107.295 15.3258 106.626 15.4637 105.951 15.5611C105.09 15.6938 104.22 15.7585 103.349 15.7547C102.574 15.7787 101.802 15.6561 101.073 15.3934C100.512 15.1812 100.017 14.8276 99.6361 14.3676C99.2715 13.9064 99.0139 13.3711 98.8817 12.7998C98.7251 12.1425 98.6487 11.4688 98.6541 10.7934V4.85791H101.698V10.4257C101.647 11.1502 101.781 11.8759 102.088 12.5353C102.414 13.0001 102.971 13.2484 103.538 13.1805C103.755 13.1805 103.987 13.1805 104.234 13.1805C104.481 13.1805 104.698 13.1568 104.884 13.1095V4.85791H107.954V15.1482Z" fill="white"/>
    <path d="M6.736 12.0064C5.86582 10.5608 6.09639 8.71358 7.29573 7.52224C8.49506 6.3309 10.3568 6.09979 11.815 6.96122L15.808 2.99993C12.1147 -0.0110968 6.72061 0.251359 3.34201 3.60648C-0.0365826 6.9616 -0.29577 12.3131 2.74302 15.9741L6.736 12.0064Z" fill="white"/>
    <path d="M17.1231 4.30957L13.1301 8.27086C13.9808 9.71649 13.7421 11.5494 12.549 12.7331C11.3559 13.9167 9.50828 14.1535 8.05109 13.3096L4.05811 17.2773C7.75138 20.2744 13.133 20.0071 16.5061 16.6591C19.8792 13.3111 20.1459 7.97204 17.1231 4.30957Z" fill="white"/>
</svg>
