<svg width="600" height="600" viewBox="0 0 600 600" fill="none" xmlns="http://www.w3.org/2000/svg">
    <circle opacity="0.2" cx="300" cy="294" r="243.611" fill="#FBFBF9"/>
    <path d="M58.0743 225.512C57.653 226.395 57.9234 227.088 58.0982 227.795C59.1451 232.05 60.2435 236.297 61.2021 240.572C62.1588 244.842 62.9739 249.144 63.8552 253.449C63.513 253.787 63.2995 254.171 63.007 254.244C62.5985 254.347 62.0926 254.314 61.6989 254.16C61.2922 254 60.9427 253.653 60.617 253.337C54.9024 247.792 49.0847 242.348 43.8393 236.341C43.3627 235.793 42.7997 235.319 42.2515 234.84C42.1319 234.735 41.9074 234.752 41.7271 234.713C41.039 235.134 40.901 235.87 40.6526 236.554C38.4889 242.486 36.0566 248.301 33.0779 253.877C32.6915 254.6 32.2978 255.328 31.8212 255.991C31.4625 256.488 30.9252 256.591 30.261 256.112C29.7753 255.148 29.5711 254.003 29.4257 252.815C28.837 247.994 28.883 243.147 28.7615 238.306C28.7119 236.302 28.4708 234.302 28.2942 232.304C28.2721 232.048 28.1121 231.806 27.9594 231.411C27.5362 231.437 27.0873 231.384 26.6917 231.503C23.8914 232.348 21.1187 233.29 18.3056 234.083C13.9966 235.297 9.66188 236.423 5.33267 237.566C4.81015 237.703 4.24347 237.812 3.71727 237.757C3.31986 237.714 2.95372 237.387 2.47168 237.134C3.02548 235.608 3.98589 234.526 5.0107 233.497C9.21295 229.284 13.4263 225.082 17.634 220.878C18.6 219.912 19.5696 218.95 20.6312 217.892C20.2503 217.361 20.013 216.867 19.6358 216.529C15.6083 212.935 11.533 209.394 7.53132 205.772C6.11278 204.486 4.82671 203.046 3.5572 201.608C3.23338 201.243 3.15427 200.624 3.07148 200.104C3.03652 199.895 3.29226 199.638 3.39345 199.445C4.23795 198.965 5.03645 199.162 5.84784 199.325C11.2276 200.416 16.5099 201.884 21.7774 203.408C23.781 203.987 25.7865 204.584 27.9612 204.887C28.4837 203.379 28.6714 201.946 28.7284 200.504C28.9511 195.022 29.6962 189.595 30.3861 184.16C30.6143 182.349 30.8498 180.538 31.0632 178.726C31.1497 177.982 31.2858 177.277 32.0935 176.672C32.3916 176.849 32.8663 176.985 33.0981 177.299C33.7476 178.175 34.3934 179.078 34.8644 180.055C36.2921 183.02 37.6334 186.026 39.0114 189.014C40.6581 192.583 42.3067 196.15 43.9681 199.711C44.1539 200.108 44.4391 200.458 44.6488 200.787C45.7049 200.864 46.2716 200.176 46.9247 199.737C50.7204 197.182 54.4608 194.543 58.2841 192.028C61.1874 190.118 64.1661 188.315 67.1541 186.537C68.0519 186.002 68.9314 185.176 70.1788 185.573C70.8577 186.528 70.5744 187.53 70.28 188.471C69.9801 189.424 69.5367 190.339 69.108 191.248C66.4089 196.958 63.2811 202.438 60.1147 207.897C59.6143 208.76 59.0218 209.575 58.7109 210.734C59.2941 211.014 59.8203 211.318 60.3815 211.522C64.9407 213.168 69.5146 214.775 74.0664 216.439C75.6984 217.036 77.2991 217.719 78.8832 218.432C79.6284 218.768 80.3698 219.187 80.9715 219.726C81.3045 220.026 81.3468 220.648 81.4811 221.018C80.896 221.962 80.1215 222.261 79.3082 222.397C76.8741 222.797 74.4344 223.17 71.9911 223.508C69.3693 223.872 66.7419 224.21 64.1109 224.511C62.1239 224.733 60.0982 224.722 58.0743 225.512Z" fill="#2C2424"/>
    <path d="M525.753 454.232C525.215 454.081 524.811 453.969 524.335 453.837C523.906 450.966 524.164 448.174 524.142 445.398C524.119 442.51 524.106 439.614 524.32 436.74C524.527 433.972 524.712 431.226 524.625 428.458C523.207 428.194 522.2 428.696 521.177 428.937C515.033 430.385 508.903 431.889 502.768 433.376C501.853 433.597 500.973 433.689 500.393 432.83C500.143 432.049 500.43 431.5 500.916 431.048C502.24 429.82 503.509 428.518 504.927 427.407C508.693 424.453 512.526 421.586 516.328 418.682C516.958 418.2 517.748 417.874 518.022 416.966C517.904 416.757 517.822 416.473 517.637 416.306C514.2 413.241 510.719 410.221 507.311 407.124C505.357 405.349 503.268 403.72 501.428 401.824C500.335 400.699 498.331 398.95 497.891 397.429C497.25 395.214 498.943 395.984 500.225 396.37C502.532 397.068 504.833 397.786 507.155 398.435C508.611 398.843 526.125 403.508 526.259 403.1C526.425 402.594 526.697 402.121 526.713 401.637C526.775 400.015 526.706 398.388 526.759 396.764C526.964 390.455 527.195 384.145 527.421 377.836C527.461 376.754 527.53 375.67 528.56 374.882C529.898 375.429 530.408 376.598 530.862 377.756C531.883 380.359 532.83 382.991 533.822 385.606C535.452 389.907 537.088 394.206 538.735 398.504C538.829 398.747 539.029 398.95 539.173 399.158C539.913 399.492 540.394 399.006 540.897 398.658C545.21 395.682 549.48 392.644 553.836 389.735C556.461 387.982 559.21 386.407 561.926 384.792C562.522 384.439 563.219 384.254 563.72 384.053C564.565 384.381 564.704 384.921 564.55 385.465C564.356 386.15 564.065 386.822 563.728 387.453C561.723 391.19 559.69 394.913 557.672 398.645C556.254 401.264 554.84 403.885 553.445 406.517C553.329 406.734 553.377 407.039 553.346 407.311C554.007 408.041 554.927 408.159 555.762 408.461C562.391 410.852 568.948 413.422 575.275 416.538C576.234 417.009 577.289 417.361 578.106 418.35C578.084 418.689 578.059 419.117 578.035 419.516C577.712 419.704 577.496 419.92 577.253 419.956C574.578 420.355 571.9 420.735 569.22 421.1C565.825 421.562 562.428 422.011 559.03 422.457C558.048 422.586 557.057 422.664 556.076 422.807C555.475 422.894 554.885 423.061 554.099 423.235C554.333 423.967 554.468 424.558 554.704 425.105C557.631 431.9 560.59 438.679 563.497 445.483C564.132 446.967 564.592 448.524 565.062 449.849C564.721 450.998 564.033 451.201 563.288 450.899C562.549 450.598 561.848 450.145 561.215 449.65C559.01 447.924 556.819 446.181 554.666 444.394C549.941 440.47 545.244 436.513 540.529 432.578C540.26 432.353 539.922 432.21 539.701 432.08C538.806 432.154 538.599 432.81 538.301 433.343C536.32 436.888 534.403 440.471 532.364 443.984C530.733 446.793 528.968 449.526 527.236 452.276C526.808 452.939 526.274 453.545 525.753 454.232Z" fill="#FFB500"/>
    <path d="M64.2687 56.805C61.47 57.4341 58.8205 58.5097 55.9506 58.8464C55.8404 58.66 55.7423 58.4923 55.616 58.2777C56.6439 57.1269 57.9095 56.3182 59.0596 55.3793C60.1748 54.4686 61.333 53.6076 62.5476 52.666C62.3044 52.3629 62.1472 52.1094 61.9376 51.9123C60.0082 50.115 58.0654 48.3312 56.136 46.5339C55.7235 46.149 55.2989 45.7601 55.1538 45.2128C55.2385 44.8534 55.4951 44.7863 55.7557 44.8064C56.269 44.8453 56.7957 44.8641 57.2861 44.9996C58.979 45.4677 60.6585 45.9854 62.3434 46.4803C62.8311 46.6238 63.3229 46.7579 63.8267 46.9014C64.2029 46.2724 64.2392 45.642 64.3238 45.0452C64.6799 42.5425 64.9876 40.033 65.3356 37.529C65.4336 36.8208 65.611 36.1234 65.7601 35.3776C66.0638 35.3186 66.3003 35.273 66.487 35.2368C67.0271 35.6781 67.1346 36.2629 67.3106 36.79C67.9972 38.8474 68.6274 40.9223 69.3072 42.981C69.4967 43.5511 69.5195 44.2136 70.1067 44.6992C70.4654 44.506 70.8255 44.3236 71.1735 44.1211C73.5436 42.745 75.9069 41.3555 78.2878 39.9955C78.6694 39.7782 79.0698 39.4375 79.5857 39.7071C79.8961 40.0089 79.8558 40.3697 79.6932 40.705C79.3774 41.3555 79.0563 42.006 78.6828 42.6256C77.8014 44.0862 76.8864 45.5267 75.9916 46.9779C75.7511 47.3668 75.5321 47.7679 75.3265 48.1233C75.5415 48.6732 76.0238 48.6611 76.3826 48.7872C78.5753 49.5611 80.7855 50.2907 82.9837 51.0498C83.5681 51.251 84.1485 51.4777 84.7021 51.7526C84.8875 51.8452 84.9816 52.1215 85.1737 52.3951C84.7841 52.6311 84.5086 52.886 84.1848 52.9799C82.4462 53.4855 80.6713 53.8289 78.8669 53.9938C77.3755 54.1306 75.8801 54.2218 74.3873 54.3493C74.1966 54.3654 74.0138 54.474 73.7518 54.5652C73.8741 54.9541 73.9614 55.2962 74.0864 55.6221C74.7515 57.3576 75.4353 59.0865 76.0924 60.8247C76.3114 61.4028 76.4995 61.9956 76.6513 62.5951C76.8031 63.1906 76.9106 63.8022 76.6956 64.3736C76.1354 64.7478 75.7377 64.446 75.3897 64.1603C74.4303 63.3744 73.4925 62.5602 72.5601 61.7421C71.6652 60.9575 70.7905 60.1527 69.8997 59.3641C69.7506 59.2327 69.5652 59.1401 69.4496 59.0663C68.9915 59.0811 68.849 59.3815 68.716 59.6498C68.1423 60.8059 67.582 61.9688 67.0285 63.1356C66.5649 64.1134 66.1377 65.1086 65.5263 66.0246C65.2845 66.0246 65.091 66.0246 64.9137 66.0246C64.5993 65.5163 64.6906 64.9865 64.6853 64.4782C64.6597 62.4623 64.6624 60.4465 64.6382 58.4306C64.6288 57.9317 64.7578 57.3965 64.2687 56.805Z" fill="#FFB500"/>
    <path d="M481.2 502.862C479.125 503.327 477.161 504.125 475.033 504.375C474.951 504.236 474.878 504.112 474.785 503.953C475.547 503.1 476.486 502.501 477.338 501.805C478.166 501.129 479.025 500.49 479.925 499.793C479.745 499.569 479.628 499.38 479.472 499.235C478.041 497.902 476.601 496.579 475.171 495.248C474.865 494.962 474.55 494.673 474.443 494.268C474.506 494.003 474.697 493.952 474.889 493.967C475.269 493.996 475.659 494.01 476.023 494.11C477.278 494.458 478.523 494.841 479.773 495.209C480.134 495.315 480.498 495.415 480.872 495.52C481.151 495.053 481.177 494.586 481.241 494.142C481.506 492.287 481.733 490.427 481.991 488.571C482.064 488.045 482.195 487.529 482.307 486.976C482.533 486.932 482.707 486.898 482.846 486.872C483.246 487.199 483.327 487.632 483.457 488.024C483.965 489.549 484.434 491.087 484.938 492.613C485.077 493.036 485.095 493.527 485.53 493.886C485.796 493.743 486.062 493.607 486.32 493.458C488.078 492.438 489.83 491.408 491.594 490.399C491.876 490.238 492.174 489.985 492.556 490.186C492.787 490.41 492.756 490.677 492.635 490.926C492.401 491.409 492.162 491.89 491.887 492.349C491.234 493.432 490.555 494.499 489.891 495.576C489.714 495.864 489.55 496.162 489.398 496.425C489.558 496.833 489.916 496.823 490.182 496.917C491.807 497.491 493.445 498.032 495.075 498.595C495.509 498.745 495.939 498.913 496.349 499.117C496.486 499.185 496.556 499.391 496.699 499.593C496.411 499.769 496.206 499.957 495.966 500.026C494.677 500.402 493.361 500.655 492.024 500.777C490.918 500.879 489.81 500.946 488.702 501.042C488.561 501.054 488.426 501.134 488.232 501.201C488.322 501.49 488.387 501.743 488.479 501.986C488.972 503.272 489.479 504.554 489.967 505.843C490.129 506.272 490.268 506.712 490.382 507.155C490.495 507.596 490.574 508.05 490.414 508.475C489.999 508.752 489.703 508.528 489.445 508.316C488.735 507.733 488.039 507.129 487.348 506.523C486.686 505.942 486.035 505.346 485.376 504.761C485.266 504.663 485.127 504.596 485.042 504.54C484.703 504.55 484.598 504.773 484.498 504.973C484.074 505.83 483.657 506.692 483.247 507.557C482.905 508.282 482.588 509.019 482.134 509.699C481.955 509.699 481.811 509.699 481.679 509.699C481.447 509.322 481.514 508.929 481.509 508.552C481.49 507.058 481.491 505.563 481.474 504.069C481.467 503.697 481.563 503.3 481.2 502.862Z" fill="white"/>
    <path d="M128.068 167.143C128.167 166.617 128.143 166.155 128.339 165.82C128.735 165.14 129.217 164.503 129.722 163.895C131.282 162.012 132.869 160.153 134.438 158.278C134.572 158.118 134.65 157.913 134.815 157.621C134.444 157.396 134.119 157.12 133.743 156.981C131.38 156.115 128.996 155.304 126.639 154.422C125.496 153.995 124.385 153.476 123.284 152.947C122.75 152.69 122.323 152.287 122.525 151.508C122.926 150.869 123.635 150.797 124.359 150.715C127.364 150.371 130.379 150.216 133.403 150.206C134.035 150.203 134.706 150.349 135.272 149.923C135.644 149.325 135.301 148.808 135.107 148.283C133.945 145.108 133.015 141.864 132.225 138.58C132.176 138.375 132.176 138.16 132.155 137.968C132.805 137.295 133.142 137.169 133.556 137.556C134.08 138.043 134.572 138.573 135.014 139.135C137.151 141.845 139.268 144.572 141.385 147.299C141.605 147.583 141.78 147.903 141.837 147.992C142.891 148.018 143.157 147.433 143.504 147.01C144.873 145.342 146.191 143.632 147.564 141.968C148.799 140.472 150.074 139.006 151.352 137.544C151.676 137.173 152.077 136.87 152.386 136.585C152.968 136.645 153.091 136.984 153.056 137.354C153.008 137.849 152.908 138.345 152.783 138.827C151.952 142.025 151.106 145.218 150.275 148.415C150.187 148.753 150.164 149.107 150.099 149.533C151.308 149.962 152.518 150.079 153.709 150.195C156.07 150.423 158.441 150.528 160.804 150.741C162.232 150.869 163.651 151.102 165.192 151.302C165.309 151.558 165.585 151.882 165.549 152.165C165.512 152.459 165.228 152.816 164.953 152.965C164.454 153.236 163.881 153.371 163.341 153.567C160.095 154.74 156.848 155.908 153.604 157.091C153.344 157.186 153.118 157.374 152.916 157.494C152.702 158.142 153.123 158.498 153.387 158.898C155.375 161.895 157.375 164.884 159.363 167.883C159.68 168.361 160.018 168.842 160.229 169.369C160.373 169.727 160.307 170.167 160.348 170.744C159.782 170.671 159.347 170.709 158.994 170.556C156.557 169.486 154.132 168.387 151.713 167.276C150.537 166.734 149.388 166.132 148.215 165.585C147.84 165.41 147.424 165.323 146.942 165.17C146.318 166.363 146.268 167.572 146.121 168.759C145.832 171.109 145.543 173.46 145.216 175.806C145.172 176.113 144.912 176.392 144.759 176.672C143.791 176.431 143.632 175.664 143.387 175.017C142.701 173.202 142.078 171.365 141.412 169.543C140.822 167.923 140.218 166.307 139.599 164.698C139.423 164.237 139.167 163.807 138.938 163.346C137.961 163.232 137.221 163.733 136.457 164.075C134.423 164.99 132.413 165.959 130.387 166.893C130 167.072 129.592 167.251 129.175 167.313C128.858 167.357 128.512 167.218 128.068 167.143Z" fill="white"/>
    <path d="M389.028 529.267C386.766 535.835 385.355 542.332 377.881 544.662C373.144 546.14 368.037 545.57 363.121 544.896C335.89 541.16 309.149 534.652 282.509 528.012C256.237 521.464 229.826 515.641 203.729 508.586C176.707 501.281 149.517 494.624 122.417 487.619C100.32 481.908 78.0855 476.15 57.2291 466.855C51.6509 464.369 45.9973 461.466 42.3179 456.6C35.7872 447.953 41.8483 440.827 43.474 432.016C45.5715 420.732 47.7012 409.479 50.1629 398.275C54.4307 378.756 59.3874 359.385 64.9761 340.208C65.8086 337.378 66.6481 334.527 67.4998 331.703C71.0933 319.925 74.7323 308.207 77.9278 296.446C78.0283 296.088 78.134 295.711 78.2345 295.352C79.1551 291.942 80.0504 288.545 80.8931 285.108C85.9229 264.564 105.499 268.088 121.3 271.44C143.052 276.053 164.47 282.164 185.821 288.34C228.134 300.558 270.373 313.057 312.533 325.79C333.382 332.1 354.211 338.468 375.02 344.894C390.252 349.597 407.547 350.93 421.077 360.063C431.86 367.347 429.096 381.998 425.421 394.401C424.202 398.494 422.888 402.359 421.909 405.619C419.146 414.892 417.301 424.412 415.528 433.913C412.569 449.767 405.948 465.208 402.965 481.25C399.954 497.44 394.393 513.655 389.028 529.267Z" fill="#E15642"/>
    <path d="M76.3144 301.188C108.004 307.636 140.35 313.371 170.85 323.379C206.171 335.397 242.701 344.781 278.669 355.021C303.972 362.225 329.321 369.267 354.714 376.147C367.411 379.586 380.119 382.985 392.838 386.344C398.761 387.908 404.724 389.369 410.489 391.345C415.732 393.143 421.472 393.365 426.865 394.892C426.032 397.722 425.193 400.573 424.341 403.397C420.748 415.175 417.109 426.893 413.913 438.654C409.928 437.951 405.978 436.695 402.568 435.774C387.644 431.829 372.579 428.358 357.642 424.386C327.272 416.297 297.084 407.55 266.894 398.803C254.842 395.312 242.79 391.822 230.738 388.33C176.881 372.729 123.043 357.133 69.2046 341.538C68.2742 341.265 67.3437 340.991 66.4196 340.7C67.6384 336.607 68.9524 332.743 69.9311 329.482C72.6954 320.209 74.5404 310.689 76.3144 301.188Z" fill="#2C2424"/>
    <path d="M108.041 379.839C129.572 384.961 151.05 390.266 172.473 395.753C183.339 398.536 194.191 401.367 205.029 404.244C208.775 405.238 212.573 406.06 216.303 407.109C218.808 407.813 224.299 407.778 224.112 412.494C224.047 414.129 223.506 415.814 222.989 417.452C221.065 423.546 219.42 429.67 217.839 435.836C216.326 441.734 213.519 441.901 209.735 441.412C205.423 440.856 201.43 439.855 197.275 438.817C163.204 430.312 129.135 421.8 95.065 413.291C92.4517 412.638 89.8322 411.984 87.3647 410.904C82.6681 408.85 85.3433 405.112 86.7271 399.457C88.2338 393.299 88.5639 387.073 90.6551 380.981C91.0515 379.825 91.5157 378.616 92.2728 377.806C94.6509 375.264 97.4084 376.749 99.4436 377.424C102.225 378.347 105.177 379.157 108.041 379.839Z" fill="#FBFBF9"/>
    <path d="M82.3917 437.596C81.3856 437.243 80.8021 436.209 81.0788 435.232C81.3653 434.218 82.4696 433.65 83.5435 433.962C171.137 459.439 260.3 483.924 348.554 506.74C349.64 507.037 350.311 508.076 350.057 509.099C349.804 510.121 348.722 510.724 347.639 510.443C259.345 487.617 170.14 463.12 82.5035 437.632C82.4673 437.621 82.4292 437.609 82.3917 437.596Z" fill="#2C2424"/>
    <path d="M77.7167 452.846C76.7095 452.493 76.1257 451.457 76.4045 450.48C76.6931 449.467 77.7977 448.901 78.8718 449.214L160.831 473.176C164.241 474.174 167.607 475.184 170.954 476.188C180.707 479.115 189.919 481.882 199.753 484.207C215.799 488.003 231.618 492.463 243.608 495.926C250.043 497.784 256.47 499.676 262.899 501.567C285.055 508.088 307.966 514.832 330.831 520.013C335.665 521.107 340.41 522.115 344.935 523.005C346.025 523.221 346.771 524.237 346.586 525.277C346.401 526.314 345.362 526.981 344.265 526.765C339.7 525.866 334.915 524.851 330.042 523.746C307.044 518.536 284.067 511.773 261.846 505.232C255.425 503.342 249.005 501.452 242.577 499.596C230.634 496.149 214.88 491.706 198.926 487.931C188.967 485.576 179.696 482.792 169.879 479.846C166.542 478.844 163.186 477.837 159.787 476.843L77.8272 452.881C77.7902 452.87 77.753 452.859 77.7167 452.846Z" fill="#2C2424"/>
    <path d="M370.865 297.873C370.865 297.873 373.885 217.408 406.83 194.286C444.103 168.128 552.678 174.543 567.917 191.285C583.157 208.026 588.447 275.942 565.993 294.728C540.98 315.655 444.102 317.753 401.54 291.595C392.904 286.287 370.865 317.753 370.865 317.753V297.873Z" fill="#BC564C"/>
    <path d="M360.867 186.067C360.867 186.067 357.665 130.468 335.383 112.667C306.296 89.4276 244.723 89.4276 221.238 110.54C209.308 121.264 206.691 170.527 222.601 183.839C240.325 198.667 308.972 200.154 339.131 181.619C345.251 177.858 360.867 200.154 360.867 200.154V186.067Z" fill="#FFB500"/>
    <path d="M489.519 278.276C509.779 278.276 526.202 261.852 526.202 241.593C526.202 221.333 509.779 204.91 489.519 204.91C469.26 204.91 452.836 221.333 452.836 241.593C452.836 261.852 469.26 278.276 489.519 278.276Z" fill="#FFB500"/>
    <path d="M489.449 266.098C472.2 266.098 466.398 253.58 466.159 253.047C465.256 251.03 466.159 248.664 468.176 247.762C470.182 246.862 472.534 247.751 473.447 249.746C473.645 250.16 477.598 258.098 489.452 258.098C489.473 258.098 489.491 258.098 489.512 258.098C501.402 258.072 505.046 250.169 505.195 249.833C506.084 247.831 508.429 246.894 510.441 247.76C512.454 248.626 513.405 250.928 512.562 252.95C512.339 253.485 506.9 266.058 489.529 266.097C489.502 266.098 489.475 266.098 489.449 266.098Z" fill="white"/>
    <path d="M479.82 235.933C483.516 235.933 486.511 232.937 486.511 229.242C486.511 225.546 483.516 222.551 479.82 222.551C476.125 222.551 473.129 225.546 473.129 229.242C473.129 232.937 476.125 235.933 479.82 235.933Z" fill="white"/>
    <path d="M499.218 235.933C502.914 235.933 505.909 232.937 505.909 229.242C505.909 225.546 502.914 222.551 499.218 222.551C495.523 222.551 492.527 225.546 492.527 229.242C492.527 232.937 495.523 235.933 499.218 235.933Z" fill="white"/>
    <path d="M259.933 152.498C262.661 152.498 264.873 150.286 264.873 147.558C264.873 144.829 262.661 142.618 259.933 142.618C257.205 142.618 254.993 144.829 254.993 147.558C254.993 150.286 257.205 152.498 259.933 152.498Z" fill="white"/>
    <path d="M279.195 152.498C281.923 152.498 284.135 150.286 284.135 147.558C284.135 144.829 281.923 142.618 279.195 142.618C276.467 142.618 274.255 144.829 274.255 147.558C274.255 150.286 276.467 152.498 279.195 152.498Z" fill="white"/>
    <path d="M298.426 152.498C301.154 152.498 303.366 150.286 303.366 147.558C303.366 144.829 301.154 142.618 298.426 142.618C295.698 142.618 293.486 144.829 293.486 147.558C293.486 150.286 295.698 152.498 298.426 152.498Z" fill="white"/>
</svg>
